<svg width="46" height="58" viewBox="0 0 46 58" fill="none" xmlns="http://www.w3.org/2000/svg">
<path d="M14 2V56M5 2H38C39.5913 2 41.1174 2.63214 42.2426 3.75736C43.3679 4.88258 44 6.4087 44 8V44C44 45.5913 43.3679 47.1174 42.2426 48.2426C41.1174 49.3679 39.5913 50 38 50H5C4.20435 50 3.44129 49.6839 2.87868 49.1213C2.31607 48.5587 2 47.7956 2 47V5C2 4.20435 2.31607 3.44129 2.87868 2.87868C3.44129 2.31607 4.20435 2 5 2V2Z" stroke="#3F3A64" stroke-width="2.75" stroke-linecap="round" stroke-linejoin="round"/>
</svg>
